<svg width="121" height="48" fill="none" xmlns="http://www.w3.org/2000/svg"><g filter="url(#a)"><path d="M6.5 21v-3h3v3h-3Zm-3-3v-6h3v6h-3Zm6 0v-6h3v6h-3Zm-9-6V0h3v12h-3Zm12 0V0h3v12h-3Zm6 9v-3h3V3h-3V0h9v3h-3v15h3v3h-9Zm12 0V0h3v18h12v3h-15Zm18 0V0h3v18h12v3h-15Zm18 0V3h3v3h9V3h3v18h-3V9h-9v12h-3Zm3-18V0h9v3h-9Zm18 18v-3h9v3h-9Zm9-3V9h-3V6h6v12h-3Zm-12 0V3h3v15h-3Zm3-15V0h12v3h-12Zm15 18V0h15v3h-12v3h6v3h-6v9h12v3h-15Zm-99 24v-3h9v3h-9Zm9-3v-3h3v3h-3Zm-12 0V27h3v15h-3Zm12-12v-3h3v3h-3Zm-9-3v-3h9v3h-9Zm15 18V27h3v3h9v-3h3v18h-3V33h-9v12h-3Zm3-18v-3h9v3h-9Zm27 18V33h3v12h-3Zm0-15v-3h3v3h-3Zm-12 15V24h12v3h-9v3h9v3h-9v12h-3Zm30 0V33h3v12h-3Zm0-15v-3h3v3h-3Zm-12 15V24h12v3h-9v3h9v3h-9v12h-3Zm18 0v-3h3V27h-3v-3h9v3h-3v15h3v3h-9Zm12 0V24h15v3h-12v3h6v3h-6v9h12v3h-15Zm30 0V33h3v12h-3Zm0-15v-3h3v3h-3Zm-12 15V24h12v3h-9v3h9v3h-9v12h-3Z" fill="#FCFCFC"/></g><defs><filter id="a" x=".5" y="0" width="119" height="47" filterUnits="userSpaceOnUse" color-interpolation-filters="sRGB"><feFlood flood-opacity="0" result="BackgroundImageFix"/><feColorMatrix in="SourceAlpha" values="0 0 0 0 0 0 0 0 0 0 0 0 0 0 0 0 0 0 127 0" result="hardAlpha"/><feOffset dx="2" dy="2"/><feComposite in2="hardAlpha" operator="out"/><feColorMatrix values="0 0 0 0 0.219608 0 0 0 0 0.219608 0 0 0 0 0.219608 0 0 0 1 0"/><feBlend in2="BackgroundImageFix" result="effect1_dropShadow_5_14"/><feBlend in="SourceGraphic" in2="effect1_dropShadow_5_14" result="shape"/></filter></defs></svg>